<?xml version="1.0" encoding="UTF-8"?>
<svg width="801px" height="435px" viewBox="0 0 801 435" version="1.1" xmlns="http://www.w3.org/2000/svg" xmlns:xlink="http://www.w3.org/1999/xlink">
    <!-- Generator: Sketch 55.1 (78136) - https://sketchapp.com -->
    <title>us-map-blue</title>
    <desc>Created with Sketch.</desc>
    <g id="Page-1" stroke="none" stroke-width="1" fill="none" fill-rule="evenodd">
        <g id="us-map" fill="#FFFFFF" fill-rule="nonzero">
            <path d="M800.196,65.076 C800.117,64.968 799.991,64.87 799.878,64.765 C793.487,58.743 749.719,62.49 749.719,62.49 C749.719,62.49 749.448,63.422 748.75,64.765 C747.265,67.624 743.814,72.373 736.771,74.138 C726.417,76.724 578.863,79.31 574.98,68.957 C574.327,67.207 573.162,65.853 571.722,64.765 C564.659,59.43 550.388,61.193 550.388,61.193 C550.388,61.193 549.282,62.661 547.496,64.765 C543.469,69.514 535.958,77.517 529.679,79.31 C522.666,81.315 521.094,72.47 521.934,64.765 C522.179,62.518 522.622,60.36 523.205,58.605 C525.017,53.167 507.777,34.4 493.287,24.973 C487.095,20.948 481.394,18.612 477.905,19.775 C466.258,23.658 405.418,0.361 405.418,0.361 L193.214,0.361 L28.763,0.361 C28.763,0.361 27.971,8.622 26.616,15.822 C26.489,16.489 26.359,17.142 26.223,17.785 C25.585,20.806 24.847,23.472 24.016,24.973 C23.476,25.954 22.899,26.447 22.294,26.243 C21.738,26.059 20.927,25.59 19.967,24.973 C14.216,21.282 2.509,11.638 0.287,17.183 C-0.422,18.954 0.252,21.716 1.566,24.973 C5.061,33.623 13.23,45.908 13.23,53.425 C13.23,55.079 13.23,59.11 13.23,64.765 C13.23,71.218 13.23,79.784 13.23,89.38 C13.23,101.734 13.23,115.774 13.23,129.17 C13.23,137.868 13.23,146.283 13.23,153.785 C13.23,167.203 13.23,177.694 13.23,181.566 C13.23,186.618 16.495,190.206 20.588,193.575 C28.023,199.702 38.198,205.121 36.527,217.343 C36.488,217.627 36.482,217.907 36.458,218.19 C35.241,232.612 52.93,247.722 65.2,257.98 C68.849,261.031 72.022,263.656 74.065,265.699 C77.839,269.474 83.184,276.166 88.697,282.594 C96.424,291.608 104.481,300.108 109.012,299.356 C116.778,298.061 131.017,292.881 140.077,303.239 C147.637,311.882 182.229,320.512 199.49,322.385 L209.43,322.385 C219.262,321.069 244.886,317.518 259.887,322.385 C265.407,324.178 269.491,327.104 270.806,331.711 C272.334,337.057 275.114,342.277 278.255,347 C285.764,358.279 295.397,366.658 295.397,366.658 C295.397,366.658 301.872,356.304 305.753,348.537 C306.05,347.941 306.44,347.433 306.891,347 C309.071,344.896 312.932,344.688 317.321,347 C323.953,350.496 331.781,359.76 336.819,377.016 C337.832,380.493 339.215,383.739 340.844,386.789 C346.544,397.463 355.442,405.617 363.642,411.402 C374.107,418.785 383.415,422.314 383.415,422.314 C383.415,422.314 383.415,417.767 383.498,411.402 C383.591,404.211 383.789,394.705 384.212,386.789 C384.351,384.176 384.514,381.727 384.707,379.601 C386.001,365.367 428.716,352.419 436.48,351.122 C444.248,349.829 496.021,373.13 496.021,365.366 C496.021,358.845 504.247,353.227 513.776,346.999 C515.596,345.81 517.457,344.603 519.323,343.358 C523.439,340.61 528.527,343.049 533.437,346.999 C542.432,354.218 550.841,366.499 551.677,361.483 C552.97,353.712 577.567,357.6 580.153,366.657 C581.677,372.001 583.65,379.595 584.752,386.788 C585.519,391.786 585.86,396.599 585.335,400.313 C584.972,402.858 586.65,406.94 589.342,411.399 C596.229,422.819 609.725,436.754 612.518,433.961 C614.224,432.258 616.182,422.527 616.96,411.399 C617.543,403.053 617.45,393.924 616.1,386.788 C615.156,381.813 613.604,377.806 611.222,375.72 C606.618,371.691 603.042,359.728 601.393,346.999 C600.285,338.397 600.051,329.47 600.986,322.38 C601.777,316.366 603.406,311.687 606.047,309.706 C610.115,306.655 624.559,295.425 639.74,282.593 C649.346,274.472 659.253,265.712 667.008,257.98 C678.207,246.816 684.934,237.788 679.822,235.929 C671.456,232.884 670.26,227.13 671.207,218.19 C671.871,211.926 673.578,204.112 674.643,194.513 C674.682,194.179 674.729,193.89 674.772,193.575 C677.687,172.021 692.858,197.967 699.246,168.621 C700.587,162.446 704.063,157.621 708.639,153.785 C726.1,139.129 759.763,139.075 753.605,134.972 C751.709,133.701 750.352,131.65 749.539,129.17 C747.025,121.528 749.675,109.768 757.488,103.906 C761.494,100.905 769.555,95.391 777.636,89.38 C790.469,79.837 803.375,69.046 800.196,65.076 Z" id="Path"></path>
        </g>
    </g>
</svg>