<?xml version="1.0" encoding="utf-8"?>
<!-- Generator: Adobe Illustrator 20.0.0, SVG Export Plug-In . SVG Version: 6.00 Build 0)  -->
<svg version="1.1" id="Layer_1" xmlns="http://www.w3.org/2000/svg" xmlns:xlink="http://www.w3.org/1999/xlink" x="0px" y="0px"
	 viewBox="0 0 60 60" style="enable-background:new 0 0 60 60;" xml:space="preserve">
<style type="text/css">
	.st0{fill:#FFFFFF;}
</style>
<path class="st0" d="M48.3,18.1H31.4c-1.3,0-3.2-0.8-4-1.8l-1.2-1.4c-1.2-1.3-3.5-2.4-5.3-2.4h-9.2c-2,0-3.7,1.6-3.7,3.6v27.7
	c0,2,1.6,3.6,3.7,3.6h36.7c2,0,3.7-1.6,3.7-3.6V21.7C52,19.7,50.4,18.1,48.3,18.1z M40.2,36.1h-6.7v6.6h-6.9v-6.6h-6.7v-6.8h6.7
	v-6.6h6.9v6.6h6.7C40.2,29.3,40.2,36.1,40.2,36.1z"/>
</svg>
