<svg xmlns="http://www.w3.org/2000/svg" class="svg-icon form" viewBox="0 0 27 27" role="img">
    <path d="M23 2.5c-.1-.2-.3-.3-.5-.3h-17c-.2 0-.4.1-.5.3-.1.2-.1.4 0 .6 1.7 3.7.6 6.9-.6 10.2-1.2 3.4-2.4 7-.4 11.2.1.2.3.3.5.3h17c.2 0 .4-.1.5-.3.1-.2.1-.4 0-.6-1.8-3.8-.7-6.9.5-10.3 1.3-3.3 2.5-6.9.5-11.1zm-2.3 21.2H4.8c-1.6-3.6-.5-6.7.6-10 1.1-3.2 2.3-6.5.8-10.4h15.9c1.6 3.6.5 6.7-.6 10-1.1 3.2-2.3 6.5-.8 10.4z"></path>
    <path class="st0" d="M20.3 5.3H9c-.3 0-.6.3-.6.6v3.9c0 .3.3.6.6.6h11.3c.3 0 .6-.3.6-.6V5.9c0-.3-.3-.6-.6-.6zm-6.2 4H9.6V6.5h4.5v2.8zm5.6 0h-4.5V6.5h4.5v2.8zM7.8 13.9h7.3c.3 0 .6-.3.6-.6s-.3-.6-.6-.6H7.8c-.3 0-.6.3-.6.6s.3.6.6.6zM19.1 12.8h-1.7c-.3 0-.6.3-.6.6s.3.6.6.6h1.7c.3 0 .6-.3.6-.6-.1-.4-.3-.6-.6-.6zM13.9 17c0-.3-.3-.6-.6-.6H6c-.3 0-.6.3-.6.6s.3.6.6.6h7.3c.3-.1.6-.3.6-.6zM17.8 17c0-.3-.3-.6-.6-.6h-1.7c-.3 0-.6.3-.6.6s.3.6.6.6h1.7c.4-.1.6-.3.6-.6zM14.4 20.3H7.1c-.3 0-.6.3-.6.6s.3.6.6.6h7.3c.3 0 .6-.3.6-.6 0-.4-.2-.6-.6-.6zM18.4 20.3h-1.7c-.3 0-.6.3-.6.6s.3.6.6.6h1.7c.3 0 .6-.3.6-.6 0-.4-.3-.6-.6-.6z"></path>
    <path fill="none" d="M0 0h27v27H0z"></path>
</svg>