<?xml version="1.0" encoding="UTF-8"?>
<svg width="16px" height="16px" viewBox="0 0 16 16" version="1.1" xmlns="http://www.w3.org/2000/svg" xmlns:xlink="http://www.w3.org/1999/xlink">
    <!-- Generator: Sketch 51.2 (57519) - http://www.bohemiancoding.com/sketch -->
    <title>❇️Close 24px</title>
    <desc>Created with Sketch.</desc>
    <defs></defs>
    <g id="Symbols" stroke="none" stroke-width="1" fill="none" fill-rule="evenodd">
        <g id="Molecules/Forms/42px-Activate-Form-Field" transform="translate(-343.000000, -33.000000)" stroke="#FFF">
            <g id="Atoms/Icons/UI-Icons/Close-24px" transform="translate(343.000000, 33.000000)">
                <path d="M15.2027958,14.9670935 L8.24957911,8.01387685 L15.2027958,1.06066017 C15.2678832,0.99557279 15.2678832,0.890045293 15.2027958,0.824957911 C15.1377084,0.759870529 15.0321809,0.759870529 14.9670935,0.824957911 L8.01387685,7.77817459 L1.06066017,0.824957911 C0.99557279,0.759870529 0.890045293,0.759870529 0.824957911,0.824957911 C0.759870529,0.890045293 0.759870529,0.99557279 0.824957911,1.06066017 L7.77817459,8.01387685 L0.824957911,14.9670935 C0.759870529,15.0321809 0.759870529,15.1377084 0.824957911,15.2027958 C0.890045293,15.2678832 0.99557279,15.2678832 1.06066017,15.2027958 L8.01387685,8.24957911 L14.9670935,15.2027958 C15.0321809,15.2678832 15.1377084,15.2678832 15.2027958,15.2027958 C15.2678832,15.1377084 15.2678832,15.0321809 15.2027958,14.9670935 Z" id="Combined-Shape"></path>
            </g>
        </g>
    </g>
</svg>