<?xml version="1.0" encoding="utf-8"?>
<!-- Generator: Adobe Illustrator 20.0.0, SVG Export Plug-In . SVG Version: 6.00 Build 0)  -->
<svg version="1.1" id="Layer_1" xmlns="http://www.w3.org/2000/svg" xmlns:xlink="http://www.w3.org/1999/xlink" x="0px" y="0px"
	 viewBox="0 0 106 106" style="enable-background:new 0 0 106 106;" xml:space="preserve">
<style type="text/css">
	.st0{fill:#FFFFFF;}
</style>
<g>
	<ellipse class="st0" cx="53" cy="23.1" rx="11.4" ry="11.1"/>
</g>
<g>
	<path class="st0" d="M51.9,34.8c0.2,0,0.4,0,0.6-0.1C52.4,34.8,52.2,34.8,51.9,34.8z"/>
	<path class="st0" d="M51.9,34.8C51.9,34.8,51.9,34.8,51.9,34.8C51.9,34.8,51.9,34.8,51.9,34.8z"/>
	<path class="st0" d="M52.6,34.7c0.5,0,1-0.1,1.5-0.1C53.6,34.7,53.1,34.7,52.6,34.7z"/>
</g>
<path class="st0" d="M92.4,63.9l-10-13.4l-5.9-8c-1.7-2.3-4.1-4.9-9.2-4.9c-2.6,0-10.4,0-15.8,0c-0.1,0-0.2,0-0.3,0
	c-5.6,0-10.8,0-12.5,0c-0.4,0-0.8,0-1.2,0.1c-0.2,0-0.4,0-0.5,0.1c0,0,0,0,0,0c-3.9,0.5-5.9,2.8-7.4,4.8l-5.9,7.9l-10,13.4
	c-0.7,1-1.1,2.2-1.1,3.5c0,3.4,2.8,6.2,6.3,6.2c0.8,0,1.6-0.2,2.3-0.4l2.3-0.8l9.9-3.3l4.1-1.4V93h30.9V77.3l0,0v-9.7l4.1,1.4
	l9.9,3.3l2.3,0.8c0.7,0.3,1.5,0.4,2.3,0.4c3.5,0,6.3-2.8,6.3-6.2C93.5,66.1,93.1,64.9,92.4,63.9z M70,53.9c0,0.5-0.1,1-0.2,1.5
	L69,55.1c-8.2-2.4-11.8,7.3-5.2,10.8c-4.4,5.3-9.6,9.5-10.8,9.5c-1.2,0-6.4-4.2-10.8-9.5c6.5-3.5,3-13.1-5.2-10.8l-0.7,0.2
	c-0.2-0.7-0.3-1.4-0.3-2c-0.4-5.4,2.9-9.2,9-9.2c6.1,0,4.6,2.5,8,2.7c3.7,0.1,3.7-3,8.9-2.7C67,44.4,70.4,49.2,70,53.9z"/>
</svg>
