<?xml version="1.0" encoding="utf-8"?>
<!-- Generator: Adobe Illustrator 20.1.0, SVG Export Plug-In . SVG Version: 6.00 Build 0)  -->
<svg version="1.1" id="Layer_1" xmlns="http://www.w3.org/2000/svg" xmlns:xlink="http://www.w3.org/1999/xlink" x="0px" y="0px"
	 viewBox="0 0 16 16" style="enable-background:new 0 0 16 16;" xml:space="preserve">
<style type="text/css">
	.st0{fill-rule:evenodd;clip-rule:evenodd;fill:#FFFFFF;}
	.st1{fill-rule:evenodd;clip-rule:evenodd;fill:#196ECF;}
	.st2{fill:#FFFFFF;}
</style>
<g>
	<path class="st0" d="M9,6H7V4h2V6z M9,7v5H7V7H9z"/>
	<path class="st1" d="M16,8c0,2.2-0.8,4.1-2.3,5.7S10.2,16,8,16s-4.1-0.8-5.6-2.3C0.8,12.1,0,10.2,0,8s0.8-4.1,2.4-5.6
		C3.9,0.8,5.8,0,8,0s4.1,0.8,5.7,2.4C15.2,3.9,16,5.8,16,8z"/>
</g>
<g>
	<g>
		<path class="st2" d="M4.3,6.3C4.4,4,5.8,2.7,8.1,2.7c2.1,0,3.6,1.2,3.6,3.1c0,1.2-0.4,1.8-2,2.9C9.1,9,8.9,9.5,8.9,10.3h-2v-0.1
			c0-1.6,0.2-2,1.5-3c0.7-0.6,0.9-0.9,0.9-1.5c0-0.7-0.5-1.2-1.3-1.2c-1,0-1.5,0.6-1.6,1.8H4.3z"/>
	</g>
	<rect x="6.9" y="11.3" class="st0" width="2" height="2"/>
</g>
</svg>
