<?xml version="1.0" encoding="utf-8"?>
<!-- Generator: Adobe Illustrator 22.0.1, SVG Export Plug-In . SVG Version: 6.00 Build 0)  -->
<svg version="1.1" xmlns="http://www.w3.org/2000/svg" xmlns:xlink="http://www.w3.org/1999/xlink" x="0px" y="0px"
	 viewBox="0 0 48 48" style="enable-background:new 0 0 48 48;" xml:space="preserve">
<style type="text/css">
	.st0{display:none;}
	.st1{display:inline;}
	.st2{fill:#15ADE4;}
	.st3{fill:#7ED2EF;}
	.st4{display:inline;fill:#7ED2EF;}
</style>
<g id="Pharmacy" class="st0">
	<g class="st1">
		<path class="st2" d="M46.4,32.5c-1.1,3.1-3,5.9-5.6,8.5c-4.6,4.6-10.2,6.9-16.8,6.9S11.8,45.6,7.1,41c-2.4-2.4-4.3-5.2-5.4-8.2
			c-1-2.7-1.5-5.6-1.5-8.7c0-6.5,2.3-12.2,6.9-16.9c4.7-4.7,10.3-7,16.9-7s12.2,2.3,16.9,7c4.7,4.7,7,10.3,7,16.9
			C47.9,27.1,47.4,29.9,46.4,32.5z"/>
	</g>
	<g class="st1">
		<path class="st3" d="M34.1,17.3H13.7c-0.3,0-0.5-0.2-0.5-0.5v-6.6c0-0.3,0.2-0.5,0.5-0.5h20.3c0.3,0,0.5,0.2,0.5,0.5v6.6
			C34.5,17.1,34.3,17.3,34.1,17.3z"/>
		<path class="st3" d="M32.1,18.6H15.7c-0.2,0-0.4,0.2-0.4,0.4v19.5c0,0.2,0.2,0.4,0.4,0.4h16.4c0.2,0,0.4-0.2,0.4-0.4V19
			C32.5,18.8,32.3,18.6,32.1,18.6z"/>
	</g>
</g>
<g id="Dental" class="st0">
	<g class="st1">
		<path class="st2" d="M46.4,32.5c-1.1,3.1-3,5.9-5.6,8.5c-4.6,4.6-10.2,6.9-16.8,6.9S11.8,45.6,7.1,41c-2.4-2.4-4.3-5.2-5.4-8.2
			c-1-2.7-1.5-5.6-1.5-8.7c0-6.5,2.3-12.2,6.9-16.9c4.7-4.7,10.3-7,16.9-7s12.2,2.3,16.9,7c4.7,4.7,7,10.3,7,16.9
			C47.9,27.1,47.4,29.9,46.4,32.5z"/>
	</g>
	<path class="st4" d="M23.9,25.4c2.1,0,3,1.6,3.2,3.8c0.1,0.5,0,1.3-0.1,2.2c-0.2,3-0.5,6.7,1.5,6.7c1.7,0,2.6-3.2,3-6.9
		c0.5-3.7,0-5.5,0.2-7.1c0.5-3.1,3.2-5.8,2.3-9.8c-0.5-2.2-1.6-3.2-2.8-3.6c-2.7-1-4.5,0.9-7.4,0.9s-4.7-1.9-7.4-0.9
		c-1.2,0.4-2.4,1.5-2.8,3.6c-0.8,3.9,1.9,6.7,2.3,9.8c0.2,1.6-0.2,3.5,0.2,7.1c0.5,3.7,1.4,6.9,3,6.9c2,0,1.7-3.7,1.5-6.7
		c-0.1-0.9-0.1-1.7-0.1-2.2C20.9,27,21.9,25.4,23.9,25.4z"/>
</g>
<g id="Medical">
	<g>
		<path class="st2" d="M46.4,32.5c-1.1,3.1-3,5.9-5.6,8.5c-4.6,4.6-10.2,6.9-16.8,6.9S11.8,45.6,7.1,41c-2.4-2.4-4.3-5.2-5.4-8.2
			c-1-2.7-1.5-5.6-1.5-8.7c0-6.5,2.3-12.2,6.9-16.9c4.7-4.7,10.3-7,16.9-7s12.2,2.3,16.9,7c4.7,4.7,7,10.3,7,16.9
			C47.9,27.1,47.4,29.9,46.4,32.5z"/>
		<polygon class="st3" points="36.5,19.3 36.5,27.9 28.2,27.9 28.2,36.2 19.8,36.2 19.8,27.8 11.5,27.8 11.5,19.3 19.8,19.3 
			19.8,11 28.3,11 28.3,19.3 		"/>
	</g>
</g>
</svg>
