<?xml version="1.0" encoding="utf-8"?>
<!-- Generator: Adobe Illustrator 20.0.0, SVG Export Plug-In . SVG Version: 6.00 Build 0)  -->
<svg version="1.1" id="Layer_1" xmlns="http://www.w3.org/2000/svg" xmlns:xlink="http://www.w3.org/1999/xlink" x="0px" y="0px"
	 viewBox="0 0 60 60" style="enable-background:new 0 0 60 60;" xml:space="preserve">
<style type="text/css">
  .st0{fill:#196ECF;}
  .st1{fill:#FFFFFF;}
</style>
<path fill-rule="evenodd" clip-rule="evenodd" class="st0" d="M8.8,8.8C14.7,2.9,21.7,0,30,0s15.3,2.9,21.2,8.8
  C57.1,14.7,60,21.7,60,30s-2.9,15.3-8.8,21.2C45.3,57.1,38.3,60,30,60s-15.3-2.9-21.2-8.8C2.9,45.3,0,38.3,0,30S2.9,14.7,8.8,8.8z"/>
<path fill-rule="evenodd" clip-rule="evenodd" class="st1" d="M30,0C22-0.1,14.3,3.1,8.8,8.8C3,14.3-0.2,22,0,30c-0.1,8,3.1,15.7,8.8,21.2C14.4,56.9,22,60.1,30,60
	c8,0.2,15.7-3,21.2-8.8C56.9,45.6,60.1,38,60,30c0.2-8-3-15.7-8.8-21.2C45.7,3,38-0.2,30,0z M9.8,9.8C15.1,4.4,22.4,1.3,30,1.5
	c7.6-0.1,14.9,2.9,20.2,8.3c5.4,5.3,8.5,12.6,8.3,20.2c0.1,7.6-2.9,14.9-8.3,20.2c-5.3,5.5-12.6,8.5-20.2,8.4
	c-7.6,0.1-14.9-2.9-20.2-8.4C4.4,44.9,1.4,37.6,1.5,30C1.4,22.4,4.4,15.1,9.8,9.8z"/>
<path fill-rule="evenodd" clip-rule="evenodd" class="st1" d="M20.6,30c0,0.2,0.1,0.4,0.2,0.5l12.9,12.9c0.1,0.1,0.3,0.2,0.5,0.2s0.4-0.1,0.5-0.2c0.1-0.1,0.2-0.3,0.2-0.5
	s-0.1-0.4-0.2-0.5L22.4,30l12.4-12.4c0.1-0.1,0.2-0.3,0.2-0.5s-0.1-0.4-0.2-0.5c-0.1-0.1-0.3-0.2-0.5-0.2s-0.4,0.1-0.5,0.2
	L20.9,29.5C20.7,29.6,20.6,29.8,20.6,30z"/>
</svg>
