<svg width="20" height="20" xmlns="http://www.w3.org/2000/svg" xmlns:svg="http://www.w3.org/2000/svg">
  <path fill="#196ecf" d="m13.9909,12.58977l-8.03391,0c-0.40133,0 -0.80265,0.40133 -0.80265,0.80265l0,4.01696c0,0.40133 0.40133,0.80265 0.80265,0.80265l8.03391,0c0.40133,0 0.80265,-0.40133 0.80265,-0.80265l0,-4.01696c0,-0.40133 -0.40133,-0.80265 -0.80265,-0.80265zm4.81961,-6.42492l-2.40796,0l0,-2.40796c0,-1.04566 -0.48233,-1.60531 -1.52431,-1.60531l-9.80491,0c-1.04566,0 -1.52431,0.56333 -1.52431,1.60531l0,2.40796l-2.41165,0c-0.40133,0 -0.80265,0.40133 -0.80265,0.80265l0,7.23126c0,0.40133 0.40133,0.80265 0.80265,0.80265l2.40796,0l0,-3.2143c0,-0.40133 0.40133,-0.80265 0.80265,-0.80265l11.32553,0c0.32033,-0.162 0.72165,0.40133 0.72165,0.80265l0,3.2143l2.40796,0c0.40133,0 0.80265,-0.40133 0.80265,-0.80265l0,-7.23126c0.00736,-0.40133 -0.39396,-0.80265 -0.79529,-0.80265zm-4.01696,0l-9.63922,0l0,-1.60531c0,-0.23932 0.56333,-0.80265 0.80265,-0.80265l8.03391,0c0.23932,0 0.80265,0.56333 0.80265,0.80265l0,1.60531z" class="st0"/>
</svg>
