<?xml version="1.0" encoding="utf-8"?>
<!-- Generator: Adobe Illustrator 21.1.0, SVG Export Plug-In . SVG Version: 6.00 Build 0)  -->
<svg version="1.1" id="Layer_1" xmlns="http://www.w3.org/2000/svg" xmlns:xlink="http://www.w3.org/1999/xlink" x="0px" y="0px"
	 viewBox="0 0 50 50" style="enable-background:new 0 0 50 50;" xml:space="preserve">
<style type="text/css">
	.st0{fill:#FFFFFF;}
</style>
<path class="st0" d="M25,4C13.4,4,4,13.4,4,25s9.4,21,21,21s21-9.4,21-21S36.6,4,25,4z M32.8,31.3c-0.3,0.7-0.7,1.2-1,1.7
	c-0.5,0.5-1,0.9-1.7,1.2l-1.6,0.5c-0.3,0.2-0.7,0.5-0.7,0.9V37c0,0.5-0.3,0.9-0.9,0.9h-3.6c-0.5,0-0.9-0.3-0.9-0.9v-1.4
	c0-0.3-0.3-0.7-0.7-0.9L19.1,34c-0.7-0.3-1.4-0.5-1.9-0.9c-0.3-0.2-0.5-0.9-0.3-1.2l2.2-3.5l1.2,0.7l1.6,0.7l1.6,0.5
	c0.5,0.2,1,0.2,1.6,0.2c1,0,1.7-0.2,2.1-0.3c0.3-0.2,0.5-0.5,0.5-1c0-0.2,0-0.3-0.2-0.5L27,28.2c-0.2-0.2-0.7-0.3-1-0.3
	c-0.5-0.2-1-0.3-1.7-0.5c-1.2-0.3-2.2-0.5-3.1-0.9s-1.7-0.7-2.2-1.2s-1-1-1.4-1.7c-0.3-0.7-0.5-1.6-0.5-2.6c0-1.6,0.5-2.8,1.4-3.8
	c0.9-0.9,1.9-1.6,3.3-1.9c0.3-0.2,0.7-0.5,0.7-0.9V13c0-0.5,0.3-0.9,0.9-0.9H27c0.5,0,0.9,0.3,0.9,0.9v1.4c0,0.3,0.3,0.7,0.7,0.9
	c0.7,0.2,1.4,0.3,2.1,0.7c0.5,0.2,1.2,0.5,1.7,0.9c0.3,0.2,0.5,0.9,0.2,1.2l-1.7,2.8c-0.2,0.3-0.9,0.5-1.2,0.2
	c-0.7-0.3-1.4-0.7-1.9-0.9c-0.9-0.3-1.9-0.5-2.9-0.5c-0.9,0-1.4,0.2-1.7,0.3c-0.3,0.2-0.3,0.5-0.3,0.9c0,0.2,0,0.3,0.2,0.5
	s0.3,0.3,0.5,0.3l1,0.3c0.3,0.2,1,0.3,1.6,0.3c1.2,0.3,2.4,0.7,3.3,1s1.7,0.9,2.2,1.2c0.5,0.5,1,1,1.4,1.7c0.3,0.9,0.5,1.7,0.5,2.6
	C33.2,29.7,33,30.6,32.8,31.3z"/>
</svg>
