<svg xmlns="http://www.w3.org/2000/svg" viewBox="0 0 130 60" enable-background="new 0 0 130 60">
<style type="text/css">.st0{fill:#196ECF;} .st1{fill:#FFFFFF;} .st2{fill:#3DA2DB;}</style>
<path class="st0" d="M9.8 9.8c-5.4 5.3-8.4 12.6-8.3 20.2-.1 7.6 2.9 14.9 8.4 20.2 11.1 11.2 29.1 11.2 40.3.1l.1-.1c5.4-5.3 8.5-12.6 8.3-20.2.1-7.6-2.9-14.9-8.3-20.2-5.3-5.4-12.7-8.4-20.3-8.3-7.6-.2-14.9 2.9-20.2 8.3z"/>
<title>Artboard 1</title>
<path class="st0" d="M30 0c-8-.1-15.7 3.1-21.2 8.8-5.8 5.5-9 13.2-8.8 21.2-.1 8 3.1 15.7 8.8 21.2 5.6 5.7 13.2 8.9 21.2 8.8 8 .2 15.7-3 21.2-8.8 5.7-5.6 8.9-13.2 8.8-21.2.2-8-3-15.7-8.8-21.2-5.5-5.8-13.2-9-21.2-8.8zm-20.2 9.8c5.3-5.4 12.6-8.5 20.2-8.3 7.6-.1 14.9 2.9 20.2 8.3 5.4 5.3 8.5 12.6 8.3 20.2.1 7.6-2.9 14.9-8.3 20.2-5.3 5.5-12.6 8.5-20.2 8.4-7.6.1-14.9-2.9-20.2-8.4-5.4-5.3-8.4-12.6-8.3-20.2-.1-7.6 2.9-14.9 8.3-20.2z"/>
<path class="st1" d="M9.8 9.8c-5.4 5.3-8.4 12.6-8.3 20.2-.1 7.6 2.9 14.9 8.4 20.2 5.3 5.5 12.6 8.5 20.2 8.4 7.6.1 14.9-2.9 20.2-8.4 5.4-5.3 8.5-12.6 8.3-20.2.1-7.6-2.9-14.9-8.3-20.2-5.3-5.4-12.7-8.4-20.3-8.3-7.6-.1-14.9 2.9-20.2 8.3z"/>
<path class="st0" d="M30.3 44.9c-.4 0-.7-.3-.7-.7 0-.4.3-.8.7-.8 3.6-.1 7-1.7 9.4-4.3 2.5-2.6 3.8-6.1 3.6-9.7-.1-3.6-1.7-7-4.3-9.4-2.6-2.5-6.1-3.8-9.7-3.6-3.6.1-7 1.7-9.4 4.3-2.5 2.6-3.8 6.1-3.6 9.7 0 .4-.3.8-.7.8s-.8-.3-.8-.7c-.2-4 1.3-7.9 4-10.8 2.7-2.9 6.4-4.6 10.4-4.8 4-.2 7.9 1.3 10.8 4 2.9 2.7 4.6 6.4 4.8 10.4.2 4-1.3 7.9-4 10.8-2.8 2.9-6.5 4.6-10.5 4.8zM15.1 32.6c-.2 0-.5-.1-.6-.3l-4.9-5.9c-.3-.3-.2-.8.1-1.1.3-.3.8-.2 1.1.1l4.5 5.3 5.5-4.6c.3-.3.8-.2 1.1.1s.2.8-.1 1.1l-6 5c-.2.2-.4.3-.7.3z"/>
<!-- <path class="st2" d="M79.8 9.8c5.3-5.4 12.6-8.5 20.2-8.3 7.6-.1 14.9 2.9 20.2 8.3 5.4 5.3 8.5 12.6 8.3 20.2.1 7.6-2.9 14.9-8.3 20.2-11.1 11.2-29.1 11.2-40.3.1l-.1-.1c-5.4-5.3-8.4-12.6-8.3-20.2-.1-7.6 2.9-14.9 8.3-20.2z"/> -->
<!-- <path class="st0" d="M79.8 9.8c-5.4 5.3-8.4 12.6-8.3 20.2-.1 7.6 2.9 14.9 8.4 20.2 11.1 11.2 29.1 11.2 40.3.1l.1-.1c5.4-5.3 8.5-12.6 8.3-20.2.1-7.6-2.9-14.9-8.3-20.2-5.3-5.4-12.7-8.4-20.3-8.3-7.6-.2-14.9 2.9-20.2 8.3z"/> -->
<!-- <path class="st1" d="M100.3 44.9c-.4 0-.7-.3-.7-.7 0-.4.3-.8.7-.8 3.6-.1 7-1.7 9.4-4.3 2.5-2.6 3.8-6.1 3.6-9.7-.1-3.6-1.7-7-4.3-9.4-2.6-2.5-6.1-3.8-9.7-3.6-3.6.1-7 1.7-9.4 4.3-2.5 2.6-3.8 6.1-3.6 9.7 0 .4-.3.8-.7.8-.4 0-.8-.3-.8-.7-.2-4 1.3-7.9 4-10.8 2.7-2.9 6.4-4.6 10.4-4.8 4-.2 7.9 1.3 10.8 4 2.9 2.7 4.6 6.4 4.8 10.4.2 4-1.3 7.9-4 10.8-2.8 2.9-6.5 4.6-10.5 4.8zM85.1 32.6c-.2 0-.5-.1-.6-.3l-4.9-5.9c-.3-.3-.2-.8.1-1.1s.8-.2 1.1.1l4.5 5.3 5.5-4.6c.3-.3.8-.2 1.1.1.3.3.2.8-.1 1.1l-6 5c-.2.2-.4.3-.7.3z"/> -->
</svg>