<?xml version="1.0" encoding="utf-8"?>
<!-- Generator: Adobe Illustrator 19.2.1, SVG Export Plug-In . SVG Version: 6.00 Build 0)  -->
<svg version="1.1" id="Layer_1" xmlns="http://www.w3.org/2000/svg" xmlns:xlink="http://www.w3.org/1999/xlink" x="0px" y="0px"
	 viewBox="0 0 60 60" style="enable-background:new 0 0 60 60;" xml:space="preserve">
<style type="text/css">
	.st0{fill-rule:evenodd;clip-rule:evenodd;fill:#196ECF;}
	.st1{fill-rule:evenodd;clip-rule:evenodd;fill:#196ECF;}
	.st2{fill-rule:evenodd;clip-rule:evenodd;fill:#FFFFFF;}
</style>
<g>
	<g>
		<path class="st0" d="M54.6,12.8c3.6,5,5.4,10.7,5.4,17.2c0,8.3-2.9,15.4-8.8,21.2C45.3,57.1,38.3,60,30,60
			c-8.3,0-15.4-2.9-21.2-8.8c-0.2-0.2-0.4-0.4-0.6-0.7C2.7,44.8,0,38,0,30c0-8.3,2.9-15.3,8.8-21.2C14.6,2.9,21.7,0,30,0
			c8.3,0,15.3,2.9,21.2,8.8C52.5,10.1,53.6,11.4,54.6,12.8z"/>
	</g>
	<g>
		<path class="st1" d="M58,30c0,7.8-2.7,14.4-8.2,19.8C44.3,55.3,37.7,58,30,58s-14.3-2.7-19.8-8.2c-0.2-0.2-0.5-0.4-0.6-0.6
			C4.5,43.9,2,37.5,2,30c0-7.7,2.8-14.3,8.2-19.8C15.7,4.8,22.3,2,30,2s14.3,2.8,19.8,8.2c1.2,1.2,2.3,2.4,3.2,3.7
			C56.3,18.6,58,23.9,58,30z"/>
	</g>
</g>
<g>
	<path class="st2" d="M44.2,15.9c0.2,0.2,0.3,0.4,0.3,0.7c0,0.3-0.1,0.5-0.3,0.7L31.4,30l12.7,12.7c0.2,0.2,0.3,0.4,0.3,0.7
		c0,0.3-0.1,0.5-0.3,0.7c-0.2,0.2-0.4,0.3-0.7,0.3c-0.3,0-0.5-0.1-0.7-0.3L30,31.5L17.2,44.2c-0.2,0.2-0.4,0.2-0.6,0.2
		c-0.3,0-0.6-0.1-0.8-0.2c-0.2-0.2-0.3-0.5-0.2-0.8c0-0.3,0.1-0.5,0.2-0.7L28.6,30L15.9,17.3c-0.2-0.2-0.3-0.4-0.3-0.7
		s0.1-0.5,0.3-0.7c0.2-0.2,0.4-0.3,0.7-0.3c0.3,0,0.5,0.1,0.7,0.3L30,28.6l12.8-12.8c0.2-0.2,0.4-0.3,0.7-0.3
		C43.7,15.6,44,15.7,44.2,15.9z"/>
</g>
</svg>
