<?xml version="1.0" encoding="utf-8"?>
<!-- Generator: Adobe Illustrator 18.0.0, SVG Export Plug-In . SVG Version: 6.00 Build 0)  -->
<!DOCTYPE svg PUBLIC "-//W3C//DTD SVG 1.1//EN" "http://www.w3.org/Graphics/SVG/1.1/DTD/svg11.dtd">
<svg version="1.1" id="Layer_1" xmlns="http://www.w3.org/2000/svg" xmlns:xlink="http://www.w3.org/1999/xlink" x="0px" y="0px"
	 viewBox="0 0 256 256" enable-background="new 0 0 256 256" xml:space="preserve">
<g>
	<g>
		<path fill="#FFFFFF" d="M188.8,38H67.2c-1.7,0-3.2,1.5-3.2,3.2v44.2c0,1.7,1.5,3.2,3.2,3.2h8.5v-0.1c0,0,0,0,0,0.1l0,0v126.8
			c0,1.5,1.1,2.7,2.7,2.7h98.9c1.5,0,2.7-1.1,2.7-2.7V88.5H180c0,0,0,0,0.1-0.1v0.1h8.7c1.7,0,3.2-1.5,3.2-3.2V41.2
			C192,39.5,190.5,38,188.8,38z M166.9,196.5h-15.7c-0.8,0-1.5-0.4-2-1.1l-4.2-7c-1.1-1.5-3.2-1.5-3.9,0l-4.2,7
			c-0.4,0.8-1.1,1.1-2,1.1h-15.8c-1.7,0-2.7-1.7-2-3.5l14.4-24.8c0.4-0.8,0.4-1.7,0-2.4l-10.5-18.1c-0.4-0.8-1.1-1.1-2-1.1h-8.6
			c-1.5,0-2.4,1.1-2.4,2.4v32.8c0,1.5-1.1,2.4-2.4,2.4H91.4c-1.5,0-2.4-1.1-2.4-2.4V92.6c0-1.5,1.1-2.4,2.4-2.4h13.9
			c0.3,0.1,0.6,0.1,0.8,0h19.2c7.7,0,14.4,2,19.2,6.7c5.9,5,9.1,11.8,9.4,21c0,11.3-4.6,19.5-13.3,24.5c-1.1,0.8-1.5,2-0.8,3.2
			l0.4,0.4c1.1,1.5,3.2,1.5,3.9,0l2.4-3.9c0.4-0.8,1.1-1.1,2-1.1h15.3c1.7,0,2.7,1.7,2,3.5L153.4,166c-0.4,0.8-0.4,1.7,0,2.4
			l9.1,15.7l5.2,9.1C169.6,194.7,168.5,196.5,166.9,196.5z"/>
		<path fill="#FFFFFF" d="M111.3,129.3h14.4c3.9,0,7-1.1,8.6-3.5c2-2,2.7-4.6,2.7-7.7c0.1-4.1-1.1-6.5-3.1-7.9c-1.7-1.5-4.2-2-7.7-2
			h-15c-1.5,0-2.4,1.1-2.4,2.4v16.5C108.9,128.4,110,129.3,111.3,129.3z"/>
	</g>
</g>
</svg>
