<?xml version="1.0" encoding="utf-8"?>
<!-- Generator: Adobe Illustrator 20.0.0, SVG Export Plug-In . SVG Version: 6.00 Build 0)  -->
<svg version="1.1" id="Layer_1" xmlns="http://www.w3.org/2000/svg" xmlns:xlink="http://www.w3.org/1999/xlink" x="0px" y="0px"
	 viewBox="0 0 30.4 39.2" style="enable-background:new 0 0 30.4 39.2;" xml:space="preserve">
<style type="text/css">
	.st0{clip-path:url(#SVGID_2_);fill:#FFFFFF;}
	.st1{clip-path:url(#SVGID_4_);fill:#FFFFFF;}
</style>
<g>
	<g>
		<defs>
			<rect id="SVGID_1_" x="4.2" y="5.5" width="22" height="28.2"/>
		</defs>
		<clipPath id="SVGID_2_">
			<use xlink:href="#SVGID_1_"  style="overflow:visible;"/>
		</clipPath>
		<path class="st0" d="M24.2,5.5H12.9v4.4h9.3c0.7,0,1.3,0.5,1.3,1.2v0.2c0,0.5-0.4,1-0.9,1.1l-9.8,0c-0.2,0.8-0.9,1.4-1.7,1.4h-7
			v17.9c0,1.1,0.9,2,2,2h18c1.1,0,2-0.9,2-2V7.5C26.2,6.4,25.3,5.5,24.2,5.5 M23.6,28.2c0,0.7-0.6,1.2-1.3,1.2H8.2
			c-0.7,0-1.3-0.5-1.3-1.2V28c0-0.7,0.6-1.2,1.3-1.2h14.1c0.7,0,1.3,0.5,1.3,1.2V28.2z M23.6,22.6c0,0.7-0.6,1.2-1.3,1.2H8.2
			c-0.7,0-1.3-0.5-1.3-1.2v-0.2c0-0.7,0.6-1.2,1.3-1.2h14.1c0.7,0,1.3,0.5,1.3,1.2V22.6z M23.6,16.9c0,0.7-0.6,1.2-1.3,1.2H8.2
			c-0.7,0-1.3-0.5-1.3-1.2v-0.2c0-0.7,0.6-1.2,1.3-1.2h14.1c0.7,0,1.3,0.5,1.3,1.2V16.9z"/>
	</g>
	<g>
		<defs>
			<rect id="SVGID_3_" x="4.2" y="5.5" width="22" height="28.2"/>
		</defs>
		<clipPath id="SVGID_4_">
			<use xlink:href="#SVGID_3_"  style="overflow:visible;"/>
		</clipPath>
		<path class="st1" d="M11.5,12.1V5.5l-6.9,6.9h6.6C11.3,12.4,11.5,12.3,11.5,12.1"/>
	</g>
</g>
</svg>
