<svg id="med-ben-icon" xmlns="http://www.w3.org/2000/svg" class="svg-icon medical ng-scope" viewBox="0 0 49.589 49.619" aria-hidden="true">
    <style type="text/css">
        .st1{fill:#fff;}
    </style>
    <path class="st1" d="M30.976 49.62H18.59a1.242 1.242 0 0 1-1.243-1.241V32.261H1.24A1.241 1.241 0 0 1 0 31.023V18.61a1.241 1.241 0 0 1 1.24-1.238h16.107V1.241A1.242 1.242 0 0 1 18.59 0h12.386a1.241 1.241 0 0 1 1.241 1.241v16.13h16.13a1.241 1.241 0 0 1 1.241 1.239v12.41a1.241 1.241 0 0 1-1.241 1.239h-16.13v16.12a1.241 1.241 0 0 1-1.241 1.241M19.83 47.138h9.907V31.023a1.242 1.242 0 0 1 1.241-1.243h16.13v-9.927H30.976a1.241 1.241 0 0 1-1.24-1.243V2.482H19.83V18.61a1.241 1.241 0 0 1-1.239 1.241H2.481v9.929H18.59a1.241 1.241 0 0 1 1.24 1.243z"></path>
</svg>