<?xml version="1.0" encoding="utf-8"?>
<!-- Generator: Adobe Illustrator 22.0.1, SVG Export Plug-In . SVG Version: 6.00 Build 0)  -->
<svg version="1.1" id="Layer_1" xmlns="http://www.w3.org/2000/svg" xmlns:xlink="http://www.w3.org/1999/xlink" x="0px" y="0px"
	 viewBox="0 0 120 182" style="enable-background:new 0 0 120 182;" xml:space="preserve">
<style type="text/css">
	.st0{clip-path:url(#SVGID_2_);fill:#C7916E;}
	.st1{clip-path:url(#SVGID_4_);fill:#A15D2C;}
	.st2{clip-path:url(#SVGID_6_);fill:#EDECED;}
	.st3{clip-path:url(#SVGID_8_);fill:#B2B2B2;}
	.st4{clip-path:url(#SVGID_10_);fill:#CBCAC9;}
	.st5{clip-path:url(#SVGID_12_);fill:#999999;}
	.st6{clip-path:url(#SVGID_14_);fill:#999999;}
	.st7{clip-path:url(#SVGID_16_);fill:#999999;}
	.st8{clip-path:url(#SVGID_18_);fill:#999999;}
	.st9{clip-path:url(#SVGID_20_);fill:#999999;}
	.st10{clip-path:url(#SVGID_22_);fill:#999999;}
	.st11{clip-path:url(#SVGID_24_);fill:#999999;}
	.st12{clip-path:url(#SVGID_26_);fill:#999999;}
	.st13{clip-path:url(#SVGID_28_);fill:#999999;}
	.st14{clip-path:url(#SVGID_30_);fill:#49C57E;}
	.st15{clip-path:url(#SVGID_32_);fill:#CCCCCC;}
	.st16{clip-path:url(#SVGID_34_);fill:#49C57E;}
	.st17{fill:none;stroke:#979797;stroke-miterlimit:10;}
</style>
<g>
	<g>
		<defs>
			<path id="SVGID_1_" d="M109.1,28H11.2C5.3,28,0.5,32.8,0.5,38.7v132.4c0,5.9,4.8,10.7,10.7,10.7h97.9c5.9,0,10.7-4.8,10.7-10.7
				V38.8C119.8,32.9,115,28,109.1,28"/>
		</defs>
		<clipPath id="SVGID_2_">
			<use xlink:href="#SVGID_1_"  style="overflow:visible;"/>
		</clipPath>
		<rect x="-4.5" y="23" class="st0" width="129.3" height="163.8"/>
	</g>
</g>
<g>
	<g>
		<defs>
			<path id="SVGID_3_" d="M89.2,28c0,0-3.4,8.3-8.3,8.3h-9.4V28H89.2z"/>
		</defs>
		<clipPath id="SVGID_4_">
			<use xlink:href="#SVGID_3_"  style="overflow:visible;"/>
		</clipPath>
		<rect x="66.5" y="23" class="st1" width="27.7" height="18.3"/>
	</g>
</g>
<g>
	<g>
		<defs>
			<rect id="SVGID_5_" x="7.2" y="33.9" width="105.5" height="139.7"/>
		</defs>
		<clipPath id="SVGID_6_">
			<use xlink:href="#SVGID_5_"  style="overflow:visible;"/>
		</clipPath>
		<rect x="2.2" y="28.9" class="st2" width="115.5" height="149.7"/>
	</g>
</g>
<g>
	<g>
		<defs>
			<path id="SVGID_7_" d="M85.6,33.9c-1.3,1.4-3.1,2.3-5.1,2.5h-8.9v-2.5H85.6z"/>
		</defs>
		<clipPath id="SVGID_8_">
			<use xlink:href="#SVGID_7_"  style="overflow:visible;"/>
		</clipPath>
		<rect x="66.6" y="28.9" class="st3" width="24" height="12.5"/>
	</g>
</g>
<g>
	<g>
		<defs>
			<path id="SVGID_9_" d="M75.3,11.4c-0.9,0-1.8,0.1-2.7,0.3C72.2,4.9,66.3-0.4,59.4,0C53.1,0.4,48,5.4,47.7,11.7
				c-6.7-1.5-13.4,2.7-14.9,9.4s2.7,13.4,9.4,14.9c0.9,0.2,1.8,0.3,2.7,0.3h30.3c6.9,0,12.5-5.6,12.5-12.4
				C87.7,17,82.2,11.4,75.3,11.4 M60.1,17.7c-3,0-5.4-2.4-5.4-5.3c0-3,2.4-5.4,5.3-5.4c3,0,5.4,2.4,5.4,5.3l0,0
				C65.5,15.3,63.1,17.7,60.1,17.7"/>
		</defs>
		<clipPath id="SVGID_10_">
			<use xlink:href="#SVGID_9_"  style="overflow:visible;"/>
		</clipPath>
		<rect x="27.5" y="-5" class="st4" width="65.2" height="46.3"/>
	</g>
</g>
<g>
	<g>
		<defs>
			<rect id="SVGID_11_" x="13.7" y="47.3" width="41.1" height="5.4"/>
		</defs>
		<clipPath id="SVGID_12_">
			<use xlink:href="#SVGID_11_"  style="overflow:visible;"/>
		</clipPath>
		<rect x="8.7" y="42.3" class="st5" width="51.1" height="15.5"/>
	</g>
</g>
<g>
	<g>
		<defs>
			<rect id="SVGID_13_" x="14" y="59" width="46.5" height="5.4"/>
		</defs>
		<clipPath id="SVGID_14_">
			<use xlink:href="#SVGID_13_"  style="overflow:visible;"/>
		</clipPath>
		<rect x="9" y="54" class="st6" width="56.5" height="15.4"/>
	</g>
</g>
<g>
	<g>
		<defs>
			<rect id="SVGID_15_" x="14" y="70" width="46.5" height="5.4"/>
		</defs>
		<clipPath id="SVGID_16_">
			<use xlink:href="#SVGID_15_"  style="overflow:visible;"/>
		</clipPath>
		<rect x="9" y="65" class="st7" width="56.5" height="15.4"/>
	</g>
</g>
<g>
	<g>
		<defs>
			<rect id="SVGID_17_" x="13.7" y="89.3" width="41.1" height="5.5"/>
		</defs>
		<clipPath id="SVGID_18_">
			<use xlink:href="#SVGID_17_"  style="overflow:visible;"/>
		</clipPath>
		<rect x="8.7" y="84.3" class="st8" width="51.1" height="15.4"/>
	</g>
</g>
<g>
	<g>
		<defs>
			<rect id="SVGID_19_" x="14" y="101" width="46.5" height="5.4"/>
		</defs>
		<clipPath id="SVGID_20_">
			<use xlink:href="#SVGID_19_"  style="overflow:visible;"/>
		</clipPath>
		<rect x="9" y="96" class="st9" width="56.5" height="15.4"/>
	</g>
</g>
<g>
	<g>
		<defs>
			<rect id="SVGID_21_" x="14" y="112" width="46.5" height="5.4"/>
		</defs>
		<clipPath id="SVGID_22_">
			<use xlink:href="#SVGID_21_"  style="overflow:visible;"/>
		</clipPath>
		<rect x="9" y="107" class="st10" width="56.5" height="15.5"/>
	</g>
</g>
<g>
	<g>
		<defs>
			<rect id="SVGID_23_" x="13.7" y="132.3" width="41.1" height="5.5"/>
		</defs>
		<clipPath id="SVGID_24_">
			<use xlink:href="#SVGID_23_"  style="overflow:visible;"/>
		</clipPath>
		<rect x="8.7" y="127.3" class="st11" width="51.1" height="15.5"/>
	</g>
</g>
<g>
	<g>
		<defs>
			<rect id="SVGID_25_" x="14" y="144" width="46.5" height="5.5"/>
		</defs>
		<clipPath id="SVGID_26_">
			<use xlink:href="#SVGID_25_"  style="overflow:visible;"/>
		</clipPath>
		<rect x="9" y="139" class="st12" width="56.5" height="15.5"/>
	</g>
</g>
<g>
	<g>
		<defs>
			<rect id="SVGID_27_" x="14" y="155" width="46.5" height="5.5"/>
		</defs>
		<clipPath id="SVGID_28_">
			<use xlink:href="#SVGID_27_"  style="overflow:visible;"/>
		</clipPath>
		<rect x="9" y="150" class="st13" width="56.5" height="15.5"/>
	</g>
</g>
<g>
	<g>
		<defs>
			<polygon id="SVGID_29_" points="96.2,90.4 82.1,104.5 75.6,98 68.4,105.3 74.8,111.8 74.8,111.8 82.1,119 82.1,119 82.1,119 
				89.4,111.8 89.4,111.8 103.5,97.6 			"/>
		</defs>
		<clipPath id="SVGID_30_">
			<use xlink:href="#SVGID_29_"  style="overflow:visible;"/>
		</clipPath>
		<rect x="63.4" y="85.4" class="st14" width="45.1" height="38.6"/>
	</g>
</g>
<g>
	<g>
		<defs>
			<polygon id="SVGID_31_" points="96.2,132.2 82.1,146.3 75.6,139.8 68.4,147.1 74.8,153.6 74.8,153.6 82.1,160.9 82.1,160.8 
				82.1,160.9 89.4,153.6 89.4,153.6 103.5,139.5 			"/>
		</defs>
		<clipPath id="SVGID_32_">
			<use xlink:href="#SVGID_31_"  style="overflow:visible;"/>
		</clipPath>
		<rect x="63.4" y="127.2" class="st15" width="45.1" height="38.6"/>
	</g>
</g>
<g>
	<g>
		<defs>
			<polygon id="SVGID_33_" points="96.2,46.7 82.1,60.9 75.6,54.4 68.4,61.6 74.8,68.1 82.1,75.4 89.4,68.1 103.5,54 			"/>
		</defs>
		<clipPath id="SVGID_34_">
			<use xlink:href="#SVGID_33_"  style="overflow:visible;"/>
		</clipPath>
		<rect x="63.4" y="41.7" class="st16" width="45.1" height="38.6"/>
	</g>
</g>
<path class="st17" d="M51,59"/>
</svg>
