<?xml version="1.0" encoding="utf-8"?>
<!-- Generator: Adobe Illustrator 18.0.0, SVG Export Plug-In . SVG Version: 6.00 Build 0)  -->
<!DOCTYPE svg PUBLIC "-//W3C//DTD SVG 1.1//EN" "http://www.w3.org/Graphics/SVG/1.1/DTD/svg11.dtd">
<svg version="1.1" id="Layer_1" xmlns="http://www.w3.org/2000/svg" xmlns:xlink="http://www.w3.org/1999/xlink" x="0px" y="0px"
	 viewBox="0 99 256 58" enable-background="new 0 99 256 58" xml:space="preserve">
<g>
	<defs>
		<rect id="SVGID_1_" y="104.7" width="254.8" height="47.3"/>
	</defs>
	<clipPath id="SVGID_2_">
		<use xlink:href="#SVGID_1_"  overflow="visible"/>
	</clipPath>
	<g clip-path="url(#SVGID_2_)">
		<g>
			<defs>
				<rect id="SVGID_3_" y="104" width="256" height="48.1"/>
			</defs>
			<defs>
				<rect id="SVGID_4_" y="104" width="256" height="48.1"/>
			</defs>
			<clipPath id="SVGID_5_">
				<use xlink:href="#SVGID_3_"  overflow="visible"/>
			</clipPath>
			<clipPath id="SVGID_6_" clip-path="url(#SVGID_5_)">
				<use xlink:href="#SVGID_4_"  overflow="visible"/>
			</clipPath>
			<path clip-path="url(#SVGID_6_)" fill="#F36C36" d="M79.3,120.7l17.7,30.1c0.4,0.6,1.2,1.2,1.8,1.2h2.7c1.7,0,2.7-1.9,1.8-3.5
				l-24-42.8c-0.9-1.6-2.9-1.6-3.8,0l-24.2,42.8c-0.9,1.6,0.3,3.5,1.9,3.5H56c0.8,0,1.4-0.4,1.8-1.2l17.7-30.1
				C76.3,119.2,78.4,119.2,79.3,120.7 M79.3,145.8l2.7,5.1c0.4,0.6,1,1.2,1.8,1.2h2.7c1.7,0,2.7-1.9,1.8-3.5l-9.1-16.4
				c-0.9-1.6-2.9-1.6-3.8,0l-9.2,16.4c-0.9,1.6,0.1,3.5,1.8,3.5h2.7c0.8,0,1.4-0.4,1.8-1.2l2.7-5.1
				C76.3,144.2,78.4,144.2,79.3,145.8"/>
			<path clip-path="url(#SVGID_6_)" fill="#2E2E3A" d="M0,105.9c0-0.6,0.5-1.2,1-1.2h26.2c7.5,0,18.6,1.6,18.6,13.3
				c0,9.2-7.9,12.3-13.6,12.9c-0.5,0-0.8,0.6-0.5,1l13.5,18.3c0.5,0.8,0,1.8-0.9,1.8H40c-0.4,0-0.6-0.1-0.9-0.4l-14.4-20.1
				c-0.3-0.3-0.5-0.5-0.9-0.5H6.9c-0.6,0-1,0.5-1,1v18.7c-0.1,0.8-0.6,1.3-1.2,1.3H1c-0.5,0-1-0.5-1-1L0,105.9 M5.7,125
				c0,0.6,0.5,1,1,1H26c8.3,0,14.4-1.2,14.4-8.2c0-6.9-6.2-8.1-14.4-8.1H6.8c-0.6,0-1,0.5-1,1C5.7,110.8,5.7,125,5.7,125z
				 M112.5,104.7h0.6c1.4,0,2.5,1.2,2.5,2.5v37.2c0,1.4,1.2,2.5,2.5,2.5h30.9c1.4,0,2.5,1.2,2.5,2.5c0,1.4-1.2,2.5-2.5,2.5h-36.5
				c-1.4,0-2.5-1.2-2.5-2.5v-42C110.1,105.9,111.2,104.7,112.5,104.7 M161.8,104.7h0.6c1.4,0,2.5,1.2,2.5,2.5v37.2
				c0,1.4,1.2,2.5,2.5,2.5h32.2c1.4,0,2.5,1.2,2.5,2.5c0,1.4-1.2,2.5-2.5,2.5h-37.9c-1.4,0-2.5-1.2-2.5-2.5v-42
				C159.3,105.9,160.4,104.7,161.8,104.7 M211.4,132.3l-20.1-23.4c-1.4-1.6-0.3-4.2,1.9-4.2h0.8c0.8,0,1.4,0.3,1.9,0.9l17.2,20
				c1,1.2,2.9,1.2,3.8,0l17-20c0.5-0.5,1.2-0.9,1.9-0.9h0.8c2.2,0,3.2,2.5,1.9,4.2l-20.1,23.3c-0.4,0.5-0.6,1-0.6,1.7v15.6
				c0,1.4-1.2,2.5-2.5,2.5h-0.6c-1.4,0-2.5-1.2-2.5-2.5v-15.6C212.1,133.3,211.8,132.7,211.4,132.3"/>
		</g>
		<g>
			<defs>
				<rect id="SVGID_7_" y="104" width="256" height="48.1"/>
			</defs>
			<clipPath id="SVGID_8_">
				<use xlink:href="#SVGID_7_"  overflow="visible"/>
			</clipPath>
			<path clip-path="url(#SVGID_8_)" fill="#59595B" d="M245.6,108.4c0.3,0.3,0.6,0.8,1.8,0.8c0.6,0,1.6-0.1,1.6-0.8
				c0-1.3-3.6-0.1-3.6-1.8c0-0.9,0.8-1.3,1.9-1.3c1,0,1.8,0.4,2.1,0.9l-0.4,0.4c-0.1-0.1-0.5-0.8-1.7-0.8c-0.8,0-1.4,0.3-1.4,0.8
				c0,1.3,3.6,0,3.6,1.9c0,0.6-0.6,1.3-2.1,1.3c-1.3,0-1.8-0.5-2.2-0.9L245.6,108.4 M250.3,105.5h0.8l1.6,3.4l1.4-3.4h0.8v4.2h-0.4
				v-3.8l-1.7,3.8h-0.4l-1.7-3.8v3.8h-0.4V105.5"/>
		</g>
	</g>
</g>
</svg>
