<svg xmlns="http://www.w3.org/2000/svg" viewBox="0 0 663.08 135.22"><defs><style>.cls-1{fill:#173b87;}.cls-2{fill:#838e98;}</style></defs><path class="cls-1" d="M89,56.56h21.63v2.9c-5.85.36-6.4,1.43-6.4,6.11v38.79c0,8.37,4.78,12.69,11.44,12.69,7.67,0,12.35-4.86,12.35-12.87V66.47c0-4.68-1.44-6.66-6.94-7v-2.9h17.27v2.9c-5.49.36-6.94,2.33-6.94,7V102.2c0,11.15-4.92,17.74-17.45,17.74s-18.56-6.85-18.56-18.11V65.57c0-4.68-.54-5.76-6.4-6.11Z"/><path class="cls-1" d="M137,118.48v-2.89c4.32-.19,5.77-1.81,5.77-4.52V82.91c0-3.89-1.08-4.52-5.94-4.71v-2.8L150,74.8v8.73h.18c2.43-5,5.95-9.2,12.08-9.2,7.48,0,11,4.87,11,12.8v24c0,3.05,1.26,4.31,5.58,4.5v2.89H165.49V86.42c0-5.95-2.26-7.93-5.33-7.93-4.77,0-9.65,6.3-9.65,15.13v17.47c0,2.69,1.44,4.31,5.77,4.5v2.89Z"/><path class="cls-1" d="M180.83,118.48v-2.89c4.32-.19,5.75-1.81,5.75-4.52V82.41c0-3.88-1.08-4.51-5.75-4.69V74.8l13.51-.49v36.76c0,2.71,1.45,4.33,5.77,4.52v2.89Zm13.51-57c0,3.42-1.9,5.76-4.61,5.76s-4.6-2.34-4.6-5.76,1.9-5.77,4.6-5.77,4.61,2.33,4.61,5.77"/><path class="cls-1" d="M214,58.81V75.39h10.85v3.39H214v31.77c0,4,1.35,5.6,3.8,5.6,3,0,5.24-1.9,5.24-11.47v-2.52H226v4.24c0,9.12-3.34,13.14-10.13,13.14-6,0-9.55-3.75-9.55-11V78.78h-5.6V76.1c6.49-2.7,9.91-5.77,10.46-17.3Z"/><path class="cls-1" d="M238,93.26c0-11.54,3.42-16,8.55-16,4.77,0,7.47,4.51,7.47,16Zm24.84,3.39c0-12.95-6.31-22.32-16.29-22.32-10.18,0-17.38,9.37-17.38,22.58,0,11.29,7.39,22.64,18.55,22.64,10.08,0,14.5-7.82,15.32-15.87l-2.89-.54c-.91,6.15-3.69,13-11.53,13-6,0-10.62-6.87-10.62-19.51Z"/><path class="cls-1" d="M276.19,97.18c0-13.88,3.23-19.46,8.19-19.46,5.48,0,8.81,6.67,8.81,19.46,0,15.5-4.78,19.46-9.54,19.46-4.49,0-7.46-5.59-7.46-19.46m11.15-37.81c4.68.18,5.85.8,5.85,4.68V80.24l-.18.09c-1.8-3.5-4.85-6-9.08-6-9.45,0-16.57,9.71-16.57,22.78,0,14.14,7.48,22.46,15.57,22.46,5.49,0,8.46-3.18,10.44-7.41h.19v6.35l12.61-.54V115.1c-3.59.07-5.22-1.36-5.22-6.24V56l-13.6.58Z"/><path class="cls-1" d="M308.4,118.48v-2.89c5.41-.37,6.32-1.45,6.32-6.14V65.56c0-4.66-.91-5.74-6.32-6.09v-2.9h21.79v2.9c-5.57.35-6.65,1.43-6.65,6.09V84.22H343V65.56c0-4.66-1.09-5.74-6.66-6.09v-2.9h21.78v2.9c-5.4.35-6.3,1.43-6.3,6.09v43.89c0,4.7.91,5.78,6.3,6.14v2.89H336.3v-2.89c5.57-.37,6.66-1.45,6.66-6.14V87.62H323.54v21.83c0,4.7,1.08,5.78,6.65,6.14v2.89Z"/><path class="cls-1" d="M368.25,93.26c0-11.54,3.41-16,8.55-16,4.77,0,7.47,4.51,7.47,16Zm24.85,3.39c0-12.95-6.3-22.32-16.29-22.32-10.18,0-17.39,9.37-17.39,22.58,0,11.29,7.38,22.64,18.56,22.64,10.07,0,14.5-7.82,15.3-15.87l-2.88-.54c-.9,6.15-3.69,13-11.52,13-6,0-10.62-6.87-10.62-19.51Z"/><path class="cls-1" d="M416.29,100.57c0,10.18-4.15,15.59-8.75,15.59-2.79,0-4.95-2.34-4.95-7.12,0-7.66,6.48-11.08,13.7-13.61ZM428.52,106c-.19,6.49-.9,8.47-2.61,8.47-1.24,0-1.88-1.17-1.88-3.77V85.68c0-6.75-3.88-11.35-14-11.35-7.83,0-13.61,4.87-13.61,11,0,3.6,1.8,5.41,4.33,5.41s4.51-2,4.51-5.23c0-2.62-.9-4.78-3.79-5a9.45,9.45,0,0,1,7.66-3.25c4.77,0,7.12,2.26,7.12,7.39V92c-7.76,2.9-22,7.14-22,17.4,0,6,4,10.16,10.95,10.16,6.3,0,9-3,11.18-7h.18c.54,4.85,3,7,7.29,7,5.57,0,7.48-4,7.48-13.49Z"/><path class="cls-1" d="M430.22,118.48v-2.89c4.32-.19,5.77-1.81,5.77-4.5V64.23c0-3.07-1.54-4.68-6-4.86V56.5L443.73,56v55.11c0,2.69,1.45,4.31,5.77,4.5v2.89Z"/><path class="cls-1" d="M462.54,58.81V75.39h10.86v3.39H462.54v31.77c0,4,1.36,5.6,3.8,5.6,3,0,5.25-1.9,5.25-11.47v-2.52h2.89v4.24c0,9.12-3.35,13.14-10.13,13.14-6,0-9.55-3.75-9.55-11V78.78h-5.58V76.1c6.48-2.7,9.9-5.77,10.45-17.3Z"/><path class="cls-1" d="M474.16,118.48v-2.89c4.32-.19,5.78-1.81,5.78-4.5V64c0-3.88-1.09-4.5-6-4.68V56.55L487.67,56V82.45h.19c1.8-4,5.23-8.12,11.27-8.12,6.94,0,11.26,4.87,11.26,12.8v24c0,2.69,1.54,4.31,5.58,4.5v2.89H502.65V86.85c0-6.29-2.26-8.37-5.51-8.37-4.51,0-9.47,5.94-9.47,14.59v18c0,2.69,1.45,4.31,5.78,4.5v2.89Z"/><path class="cls-1" d="M549.47,103.54c-.82,8.52-4.77,16.14-14.71,16.14-9.14,0-17.59-8.17-17.59-21.51,0-11.28,7.81-24,18.7-24,7.67,0,12.51,4.77,12.51,11.79,0,4.31-1.34,6.66-4.57,6.66-2.52,0-4.22-2.17-4.22-5.4,0-3.87,1.35-5.4,3.67-5.4a4.3,4.3,0,0,1,1.36.36l.17-.17a7.76,7.76,0,0,0-7.56-5C530.51,77,526,83.83,526,96.64c0,15.25,4.71,19.59,10,19.59,7.31,0,9.65-6.7,10.64-13.07Z"/><path class="cls-1" d="M574.59,100.54c0,10.25-4.17,15.68-8.8,15.68-2.82,0-5-2.34-5-7.16,0-7.71,6.53-11.16,13.8-13.7Zm12.26,5.62c-.19,6.56-.89,8.57-2.61,8.57-1.24,0-1.89-1.19-1.89-3.83V85.61c0-6.84-3.88-11.4-14.06-11.4-7.9,0-13.65,4.84-13.65,11,0,3.65,1.8,5.47,4.31,5.47s4.49-2,4.49-5.28c0-2.64-.89-4.83-3.77-5.1a9.47,9.47,0,0,1,7.7-3.27c4.84,0,7.22,2.27,7.22,7.46V92c-7.8,2.84-22.1,7.13-22.1,17.47,0,6,4.05,10.24,11,10.24,6.35,0,9.08-3,11.25-7.08H575c.54,4.9,3,7.08,7.32,7.08,5.55,0,7.41-4.07,7.41-13.61Z"/><path class="cls-1" d="M590.8,118.54v-2.82c3.79-.18,5.24-1.81,5.24-4.54V86.52c0-6.16-1.09-8.16-5.61-8.33V75.27l12.46-.53V85.2h.18c1.17-4.71,4.38-11,9.76-11,3.33,0,6.58,2.74,6.58,7.83,0,3.9-1.88,5.89-4.23,5.89-2,0-4.07-1.26-4.07-5.35,0-2.18,1.27-4.45,3.87-4.45A2.66,2.66,0,0,0,612.66,77c-6.09.08-8.86,13.35-8.86,21.23v12.9c0,2.72,1.43,4.37,7.51,4.54v2.82Z"/><path class="cls-1" d="M628.22,93.33c0-11.71,3.43-16.29,8.59-16.29,4.79,0,7.51,4.57,7.51,16.29Zm24.9,3.45c0-13.15-6.28-22.57-16.31-22.57-10.21,0-17.38,9.42-17.38,22.84,0,11.26,7.36,22.63,18.56,22.63,10.12,0,14.5-7.85,15.3-15.87l-2.82-.56c-.9,6.14-3.71,13-11.57,13-6.07,0-10.67-6.83-10.67-19.45Z"/><path class="cls-1" d="M656.36,64.55a5.74,5.74,0,1,1-5.76,5.73,5.7,5.7,0,0,1,5.76-5.73m0-1a6.74,6.74,0,1,0,6.71,6.71,6.73,6.73,0,0,0-6.71-6.71m-1.27,7.17h1.25a1,1,0,0,1,1.17.87,8.2,8.2,0,0,0,.32,2.59h1.24a11,11,0,0,1-.32-2c0-1.56-.38-1.86-1.35-2v0a1.88,1.88,0,0,0,1.69-1.81,1.94,1.94,0,0,0-2.16-1.92h-3.09v7.77h1.27Zm0-3.44h1.62a1.07,1.07,0,0,1,1.12,1.19,1.11,1.11,0,0,1-1.12,1.25h-1.62Z"/><path class="cls-1" d="M10.53,118.48h.76l.19,0,.15,0,.22,0,.15,0,.24,0,.13,0,.26-.05.16,0,.27-.06.14,0,.29-.09.15-.05.29-.1.15-.06.3-.12a.56.56,0,0,0,.16-.07l.32-.14.15-.07.33-.17a.43.43,0,0,0,.15-.09,3.69,3.69,0,0,0,.34-.18l.15-.09.35-.21.15-.11a3.79,3.79,0,0,0,.34-.25l.16-.12.35-.27.15-.14a3.94,3.94,0,0,0,.35-.29l.16-.16c.13-.1.23-.21.35-.32a1.83,1.83,0,0,0,.18-.19l.33-.34a2.45,2.45,0,0,0,.2-.22,4.46,4.46,0,0,0,.31-.36,2.43,2.43,0,0,0,.2-.23c.11-.13.21-.25.31-.39L20,113l.32-.42.19-.29.29-.45.21-.33c.09-.16.19-.3.28-.46s.13-.23.19-.35l.29-.5c.07-.14.12-.27.19-.38s.19-.35.28-.54.14-.3.21-.44.17-.35.25-.53l.22-.51.23-.53.21-.53c.07-.2.15-.38.23-.58s.13-.36.19-.54.17-.42.23-.63.16-.51.25-.77.11-.31.16-.48c.13-.43.26-.87.39-1.32,1.79-6.45,2.24-19.52,2.24-28.21V18.69L0,33.2V90.43c0,21.83,3.92,27.06,8.78,27.91H8.71Z"/><path class="cls-2" d="M17.33,124.34C28,122.91,34.22,111,35.7,105.22c2.38-8,2.82-18.06,2.82-29.37V12.56L27.07,18.69l6,1.34V70.79c0,13.08-.3,24.54-2.43,32.14-3,10.74-8.43,15.09-12.21,16.5l-9.68-1.09H8.71a8.36,8.36,0,0,0,6.21,5.87Z"/><path class="cls-2" d="M14.91,124.2A9.06,9.06,0,0,0,21,129.66l2.48.23c11.16-.1,18.46-11,21.08-16.71,3.78-8.46,5.61-20.48,5.61-37.79V6.33L38.52,12.56l6.16,1.37V72.79c0,14.71-.59,27.18-4.15,36.51-3.13,8-8.76,14.25-15.63,15.94l-7.56-.9Z"/><path class="cls-2" d="M50.15,6.33l6.28,1.39V72.79c0,20-2,33.62-6.5,42.82-4.17,8.61-11.16,14.17-17.82,15.32l-8.65-1L21,129.66a11.47,11.47,0,0,0,9.67,5.54c5.38.22,9.77-2.12,14-4.92C57.77,121.14,62,100.8,62,73.33V0Z"/></svg>
